<?xml version="1.0" standalone="no"?>
<!DOCTYPE svg PUBLIC "-//W3C//DTD SVG 20010904//EN"
 "http://www.w3.org/TR/2001/REC-SVG-20010904/DTD/svg10.dtd">
<svg version="1.0" xmlns="http://www.w3.org/2000/svg"
 width="300.000000pt" height="300.000000pt" viewBox="0 0 300.000000 300.000000"
 preserveAspectRatio="xMidYMid meet">
<metadata>
Created by potrace 1.11, written by Peter Selinger 2001-2013
</metadata>
<g transform="translate(0.000000,300.000000) scale(0.100000,-0.100000)"
fill="#000000" stroke="none">
<path d="M0 1500 l0 -1500 1500 0 1500 0 0 1500 0 1500 -1500 0 -1500 0 0
-1500z m1158 158 c-5 -626 -5 -630 -73 -732 -67 -100 -176 -149 -330 -148
-226 2 -355 122 -372 348 l-6 71 78 12 c43 6 79 10 81 8 2 -1 8 -33 14 -71 13
-85 39 -137 86 -173 31 -23 49 -28 109 -31 82 -5 134 15 178 68 49 57 50 71
54 658 l5 552 90 0 89 0 -3 -562z m381 535 c34 -86 383 -1073 406 -1151 16
-50 30 -90 33 -87 3 2 19 49 37 102 17 54 121 338 230 631 l198 532 94 0 93 0
-16 -40 c-9 -22 -134 -340 -278 -707 l-261 -668 -96 -3 c-72 -2 -98 1 -102 10
-2 7 -125 324 -272 703 -147 380 -269 693 -272 698 -2 4 41 7 95 7 99 0 100 0
111 -27z"/>
</g>
</svg>
